<?xml version="1.0" encoding="utf-8"?>
<svg id="master-artboard" viewBox="0 0 685.2711791992188 656.30712890625" version="1.1" xmlns="http://www.w3.org/2000/svg" x="0px" y="0px" style="enable-background:new 0 0 1096 780;" width="685.2711791992188px" height="656.30712890625px"><rect id="ee-background" x="0" y="0" width="685.2711791992188" height="656.30712890625" style="fill: white; fill-opacity: 0; pointer-events: none;"/><defs><radialGradient id="gradient-0" gradientUnits="objectBoundingBox" cx="0.5" cy="0.5" r="0.5">
                <stop offset="0" style="stop-color: #ff9933"/>
                <stop offset="1" style="stop-color: #cc6600"/>
              </radialGradient><linearGradient id="gradient-1" gradientUnits="userSpaceOnUse" x1="183.5" y1="0" x2="183.5" y2="360" gradientTransform="matrix(0.999986282944973, 0.005208437145524381, -0.005405560392960075, 1.0378390075468447, 1.9484748594817947, 2.936257942625137)">
                <stop offset="0" style="stop-color: #ff9933"/>
                <stop offset="1" style="stop-color: #cc6600"/>
              </linearGradient><radialGradient id="gradient-2" gradientUnits="objectBoundingBox" cx="0.5" cy="0.5" r="0.5" gradientTransform="matrix(1.0318148136138916, 0.0108109712600708, -0.010081887245178223, 0.9999471028640983, -0.01086646318435669, -0.005379037062084535)">
                <stop offset="0" style="stop-color: #cc6633"/>
                <stop offset="1" style="stop-color: #7a3d1f"/>
              </radialGradient><linearGradient id="gradient-3" gradientUnits="userSpaceOnUse" x1="548" y1="0" x2="548" y2="360">
                <stop offset="0" style="stop-color: #6699cc"/>
                <stop offset="1" style="stop-color: #336699"/>
              </linearGradient><linearGradient id="gradient-4" gradientUnits="userSpaceOnUse" x1="912.5" y1="0" x2="912.5" y2="360">
                <stop offset="0" style="stop-color: #66cc66"/>
                <stop offset="1" style="stop-color: #339933"/>
              </linearGradient><linearGradient id="gradient-5" gradientUnits="userSpaceOnUse" x1="912.5" y1="359" x2="912.5" y2="719" gradientTransform="matrix(0.9999994821019249, 0, 0, 0.9675662873105263, 0.0004641214517909652, 11.643792813852983)">
                <stop offset="0" style="stop-color: #cc6633"/>
                <stop offset="1" style="stop-color: #7a3d1f"/>
              </linearGradient><linearGradient id="gradient-6" gradientUnits="userSpaceOnUse" x1="182.5" y1="359" x2="182.5" y2="719">
                <stop offset="0" style="stop-color: #333366"/>
                <stop offset="1" style="stop-color: #111122"/>
              </linearGradient><linearGradient id="gradient-7" gradientUnits="userSpaceOnUse" x1="182.5" y1="359" x2="182.5" y2="719">
                <stop offset="0" style="stop-color: #4e4e9c"/>
                <stop offset="1" style="stop-color: #2c2c58"/>
              </linearGradient><linearGradient id="gradient-8" gradientUnits="userSpaceOnUse" x1="547" y1="359" x2="547" y2="719">
                <stop offset="0" style="stop-color: #ffcc66"/>
                <stop offset="1" style="stop-color: #ffaa00"/>
              </linearGradient><linearGradient id="gradient-9" gradientUnits="userSpaceOnUse" x1="547" y1="359" x2="547" y2="719">
                <stop offset="0" style="stop-color: #ffcc66"/>
                <stop offset="1" style="stop-color: #ffaa00"/>
              </linearGradient><linearGradient id="gradient-10" gradientUnits="userSpaceOnUse" x1="183.5" y1="0" x2="183.5" y2="360" gradientTransform="matrix(0.999986282944973, 0.005208437145524381, -0.005405560392960075, 1.0378390075468447, 1.9484748594817947, 2.936257942625137)">
                <stop offset="0" style="stop-color: #ff9933"/>
                <stop offset="1" style="stop-color: #cc6600"/>
              </linearGradient><linearGradient id="gradient-11" gradientUnits="userSpaceOnUse" x1="183.5" y1="0" x2="183.5" y2="360" gradientTransform="matrix(0.999986282944973, 0.005208437145524381, -0.005405560392960075, 1.0378390075468447, 1.9484748594817947, 2.936257942625137)">
                <stop offset="0" style="stop-color: #ff9933"/>
                <stop offset="1" style="stop-color: #cc6600"/>
              </linearGradient><linearGradient id="gradient-12" gradientUnits="userSpaceOnUse" x1="183.5" y1="0" x2="183.5" y2="360" gradientTransform="matrix(0.999986282944973, 0.005208437145524381, -0.005405560392960075, 1.0378390075468447, 1.9484748594817947, 2.936257942625137)">
                <stop offset="0" style="stop-color: #ff9933"/>
                <stop offset="1" style="stop-color: #cc6600"/>
              </linearGradient></defs>





<path d="M 729 359 H 1096 V 719 H 729 V 359 Z" class="st3" style="fill: url('#gradient-5');" transform="matrix(1, 0, 0, 1, -577.9637451171875, -200.80337524414062)"/>

















<path class="st6" d="M901.1,591.2c0,0,12,10.7,44.1,5.5c4.5-1.3-6.7-8.5-6.7-8.5l11.9-15.2c0,0-22.2,4.5-16.4-12.6&#10;&#9;&#9;c5.8-17,27-10.6,27-10.6l-8-10.9l11.9-20.9c0,0-18,7.7-21.5,7.7c-3.5,0-6.8-7.7-6.8-7.7s-5.8,8-10,8c-4.2,0-14.5-13.5-3.9-25.7&#10;&#9;&#9;c-3.2,0-7.4,1.9-12.2-3.9c-4.8-5.8-11.3-24.8-11.3-24.8s-5.8,19-9,23.2c-3.2,4.2-14.1,6.1-14.1,6.1s5.5,17.7,0,22.5&#10;&#9;&#9;c-5.5,4.8-14.1-5.1-14.1-5.1s-2.9,8.4-5.8,8.4c-2.9,0-23.8-9.6-23.8-9.6l13.5,22.5l-8,10.3c0,0,27.3,1.9,27,13.8&#10;&#9;&#9;c-0.3,11.9-16.4,9.3-16.4,9.3l10.6,13.5l-6.1,9.6c0,0,24.4,7,43.4-4.3c-0.3,16.1-1.3,30.1-1.3,30.1h7.7L901.1,591.2z" style="fill: rgb(255, 255, 255);" transform="matrix(1, 0, 0, 1, -554.9637451171875, -200.80337524414062)"/></svg>