<?xml version="1.0" encoding="utf-8"?>
<svg id="master-artboard" viewBox="0 0 627.4992065429688 607.6569213867188" version="1.1" xmlns="http://www.w3.org/2000/svg" x="0px" y="0px" style="enable-background:new 0 0 1096 780;" width="627.4992065429688px" height="607.6569213867188px"><rect id="ee-background" x="0" y="0" width="627.4992065429688" height="607.6569213867188" style="fill: white; fill-opacity: 0; pointer-events: none;"/><defs><radialGradient id="gradient-0" gradientUnits="objectBoundingBox" cx="0.5" cy="0.5" r="0.5">
                <stop offset="0" style="stop-color: #ff9933"/>
                <stop offset="1" style="stop-color: #cc6600"/>
              </radialGradient><linearGradient id="gradient-1" gradientUnits="userSpaceOnUse" x1="183.5" y1="0" x2="183.5" y2="360" gradientTransform="matrix(0.999986282944973, 0.005208437145524381, -0.005405560392960075, 1.0378390075468447, 1.9484748594817947, 2.936257942625137)">
                <stop offset="0" style="stop-color: #ff9933"/>
                <stop offset="1" style="stop-color: #cc6600"/>
              </linearGradient><radialGradient id="gradient-2" gradientUnits="objectBoundingBox" cx="0.5" cy="0.5" r="0.5" gradientTransform="matrix(1.0318148136138916, 0.0108109712600708, -0.010081887245178223, 0.9999471028640983, -0.01086646318435669, -0.005379037062084535)">
                <stop offset="0" style="stop-color: #cc6633"/>
                <stop offset="1" style="stop-color: #7a3d1f"/>
              </radialGradient><linearGradient id="gradient-3" gradientUnits="userSpaceOnUse" x1="548" y1="0" x2="548" y2="360">
                <stop offset="0" style="stop-color: #6699cc"/>
                <stop offset="1" style="stop-color: #336699"/>
              </linearGradient><linearGradient id="gradient-4" gradientUnits="userSpaceOnUse" x1="912.5" y1="0" x2="912.5" y2="360">
                <stop offset="0" style="stop-color: #66cc66"/>
                <stop offset="1" style="stop-color: #339933"/>
              </linearGradient><linearGradient id="gradient-5" gradientUnits="userSpaceOnUse" x1="912.5" y1="359" x2="912.5" y2="719" gradientTransform="matrix(0.9999994821019249, 0, 0, 0.9675662873105263, 0.0004641214517909652, 11.643792813852983)">
                <stop offset="0" style="stop-color: #cc6633"/>
                <stop offset="1" style="stop-color: #7a3d1f"/>
              </linearGradient><linearGradient id="gradient-6" gradientUnits="userSpaceOnUse" x1="182.5" y1="359" x2="182.5" y2="719">
                <stop offset="0" style="stop-color: #333366"/>
                <stop offset="1" style="stop-color: #111122"/>
              </linearGradient><linearGradient id="gradient-7" gradientUnits="userSpaceOnUse" x1="182.5" y1="359" x2="182.5" y2="719">
                <stop offset="0" style="stop-color: #4e4e9c"/>
                <stop offset="1" style="stop-color: #2c2c58"/>
              </linearGradient><linearGradient id="gradient-8" gradientUnits="userSpaceOnUse" x1="547" y1="359" x2="547" y2="719">
                <stop offset="0" style="stop-color: #ffcc66"/>
                <stop offset="1" style="stop-color: #ffaa00"/>
              </linearGradient><linearGradient id="gradient-9" gradientUnits="userSpaceOnUse" x1="547" y1="359" x2="547" y2="719">
                <stop offset="0" style="stop-color: #ffcc66"/>
                <stop offset="1" style="stop-color: #ffaa00"/>
              </linearGradient><linearGradient id="gradient-10" gradientUnits="userSpaceOnUse" x1="183.5" y1="0" x2="183.5" y2="360" gradientTransform="matrix(0.999986282944973, 0.005208437145524381, -0.005405560392960075, 1.0378390075468447, 1.9484748594817947, 2.936257942625137)">
                <stop offset="0" style="stop-color: #ff9933"/>
                <stop offset="1" style="stop-color: #cc6600"/>
              </linearGradient><linearGradient id="gradient-11" gradientUnits="userSpaceOnUse" x1="183.5" y1="0" x2="183.5" y2="360" gradientTransform="matrix(0.999986282944973, 0.005208437145524381, -0.005405560392960075, 1.0378390075468447, 1.9484748594817947, 2.936257942625137)">
                <stop offset="0" style="stop-color: #ff9933"/>
                <stop offset="1" style="stop-color: #cc6600"/>
              </linearGradient><linearGradient id="gradient-12" gradientUnits="userSpaceOnUse" x1="183.5" y1="0" x2="183.5" y2="360" gradientTransform="matrix(0.999986282944973, 0.005208437145524381, -0.005405560392960075, 1.0378390075468447, 1.9484748594817947, 2.936257942625137)">
                <stop offset="0" style="stop-color: #ff9933"/>
                <stop offset="1" style="stop-color: #cc6600"/>
              </linearGradient></defs>




<path d="M 729 0 H 1096 V 360 H 729 V 0 Z" class="st2" style="fill: url('#gradient-4');" transform="matrix(1, 0, 0, 1, -599.2481536865234, 121.5038070678711)"/>






<g transform="matrix(1, 0, 0, 1, -599.2481536865234, 121.5038070678711)">
	<path class="st6" d="M999.1,180.1c0,0-42.2-13-53.6-4.5c-13,7.5-23.1,22.9-13.3,37.7c9.1,10.7,27.3,18.5,43.2-3.9&#10;&#9;&#9;C991.3,186.9,999.1,180.1,999.1,180.1z" style="fill: rgb(255, 255, 255);"/>
	<path class="st6" d="M920.7,186.6c6.1,0,33.6-6.3,24.5-43.8c-10.8-31-32.3-34.7-32.3-34.7s-1.3,19.9-8.4,37.8&#10;&#9;&#9;C897.6,163.4,900.3,186.7,920.7,186.6z" style="fill: rgb(255, 255, 255);"/>
	<path class="st6" d="M844,182.5c0,0,31.4,38.3,43.3,40.3c12.1,1,23.2-5.4,25.8-15.4c1.7-7.4,0.4-32.7-25.3-32.5&#10;&#9;&#9;C862,175.1,844,182.5,844,182.5z" style="fill: rgb(255, 255, 255);"/>
	<path class="st2" d="M921.1,180.4c4.2,0,23.1-4.3,16.9-30.1c-7.5-21.3-22.2-23.9-22.2-23.9s-0.9,13.7-5.8,26&#10;&#9;&#9;C905.2,164.4,907.1,180.4,921.1,180.4z" style="fill: rgb(102, 204, 102);"/>
	<path class="st2" d="M988.7,184.7c0,0-31.5-9.7-40-3.4c-9.7,5.6-17.2,17.1-9.9,28.1c6.8,8,20.4,13.8,32.3-2.9&#10;&#9;&#9;C982.9,189.8,988.7,184.7,988.7,184.7z" style="fill: rgb(102, 204, 102);"/>
	<path class="st2" d="M856.1,184.9c0,0,22.6,27.6,31.2,29c8.7,0.7,16.7-3.9,18.6-11.1c1.2-5.3,0.3-23.5-18.2-23.4&#10;&#9;&#9;C869.1,179.6,856.1,184.9,856.1,184.9z" style="fill: rgb(102, 204, 102);"/>
	<path class="st6" d="M919.5,190.8c0,0,5.2,56.2-13.6,77c4.2,3.3,12,5.9,12,5.9s16.6-50.4,4.5-82.9&#10;&#9;&#9;C922.2,189.7,919.5,190.8,919.5,190.8z" style="fill: rgb(255, 255, 255);"/>
	<path class="st6" d="M937.6,209.6c0,0,17.1-16.5,36-19.3c-16-3.7-37.7,14.1-37.7,14.1L937.6,209.6z" style="fill: rgb(255, 255, 255);"/>
	<path class="st6" d="M917.9,183c0,0,0.2-41.6,6.2-42c-6.2,15.4-1,42-1,42H917.9z" style="fill: rgb(255, 255, 255);"/>
	<path class="st6" d="M907.1,205.3c0,0-24.3-18.9-37.9-16.7c17.9,4.3,35.1,21,35.1,21L907.1,205.3z" style="fill: rgb(255, 255, 255);"/>
</g>











</svg>