<?xml version="1.0" encoding="utf-8"?>
<svg id="master-artboard" viewBox="0 0 736.9620971679688 616.77880859375" version="1.1" xmlns="http://www.w3.org/2000/svg" x="0px" y="0px" style="enable-background:new 0 0 1096 780;" width="736.9620971679688px" height="616.77880859375px"><rect id="ee-background" x="0" y="0" width="736.9620971679688" height="616.77880859375" style="fill: white; fill-opacity: 0; pointer-events: none;"/><defs><radialGradient id="gradient-0" gradientUnits="objectBoundingBox" cx="0.5" cy="0.5" r="0.5">
                <stop offset="0" style="stop-color: #ff9933"/>
                <stop offset="1" style="stop-color: #cc6600"/>
              </radialGradient><linearGradient id="gradient-1" gradientUnits="userSpaceOnUse" x1="183.5" y1="0" x2="183.5" y2="360" gradientTransform="matrix(0.999986282944973, 0.005208437145524381, -0.005405560392960075, 1.0378390075468447, 1.9484748594817947, 2.936257942625137)">
                <stop offset="0" style="stop-color: #ff9933"/>
                <stop offset="1" style="stop-color: #cc6600"/>
              </linearGradient><radialGradient id="gradient-2" gradientUnits="objectBoundingBox" cx="0.5" cy="0.5" r="0.5" gradientTransform="matrix(1.0318148136138916, 0.0108109712600708, -0.010081887245178223, 0.9999471028640983, -0.01086646318435669, -0.005379037062084535)">
                <stop offset="0" style="stop-color: #cc6633"/>
                <stop offset="1" style="stop-color: #7a3d1f"/>
              </radialGradient><linearGradient id="gradient-3" gradientUnits="userSpaceOnUse" x1="548" y1="0" x2="548" y2="360">
                <stop offset="0" style="stop-color: #6699cc"/>
                <stop offset="1" style="stop-color: #336699"/>
              </linearGradient><linearGradient id="gradient-4" gradientUnits="userSpaceOnUse" x1="912.5" y1="0" x2="912.5" y2="360">
                <stop offset="0" style="stop-color: #66cc66"/>
                <stop offset="1" style="stop-color: #339933"/>
              </linearGradient><linearGradient id="gradient-5" gradientUnits="userSpaceOnUse" x1="912.5" y1="359" x2="912.5" y2="719" gradientTransform="matrix(0.9999994821019249, 0, 0, 0.9675662873105263, 0.0004641214517909652, 11.643792813852983)">
                <stop offset="0" style="stop-color: #cc6633"/>
                <stop offset="1" style="stop-color: #7a3d1f"/>
              </linearGradient><linearGradient id="gradient-6" gradientUnits="userSpaceOnUse" x1="182.5" y1="359" x2="182.5" y2="719">
                <stop offset="0" style="stop-color: #333366"/>
                <stop offset="1" style="stop-color: #111122"/>
              </linearGradient><linearGradient id="gradient-7" gradientUnits="userSpaceOnUse" x1="182.5" y1="359" x2="182.5" y2="719">
                <stop offset="0" style="stop-color: #4e4e9c"/>
                <stop offset="1" style="stop-color: #2c2c58"/>
              </linearGradient><linearGradient id="gradient-8" gradientUnits="userSpaceOnUse" x1="547" y1="359" x2="547" y2="719">
                <stop offset="0" style="stop-color: #ffcc66"/>
                <stop offset="1" style="stop-color: #ffaa00"/>
              </linearGradient><linearGradient id="gradient-9" gradientUnits="userSpaceOnUse" x1="547" y1="359" x2="547" y2="719">
                <stop offset="0" style="stop-color: #ffcc66"/>
                <stop offset="1" style="stop-color: #ffaa00"/>
              </linearGradient><linearGradient id="gradient-10" gradientUnits="userSpaceOnUse" x1="183.5" y1="0" x2="183.5" y2="360" gradientTransform="matrix(0.999986282944973, 0.005208437145524381, -0.005405560392960075, 1.0378390075468447, 1.9484748594817947, 2.936257942625137)">
                <stop offset="0" style="stop-color: #ff9933"/>
                <stop offset="1" style="stop-color: #cc6600"/>
              </linearGradient><linearGradient id="gradient-11" gradientUnits="userSpaceOnUse" x1="183.5" y1="0" x2="183.5" y2="360" gradientTransform="matrix(0.999986282944973, 0.005208437145524381, -0.005405560392960075, 1.0378390075468447, 1.9484748594817947, 2.936257942625137)">
                <stop offset="0" style="stop-color: #ff9933"/>
                <stop offset="1" style="stop-color: #cc6600"/>
              </linearGradient><linearGradient id="gradient-12" gradientUnits="userSpaceOnUse" x1="183.5" y1="0" x2="183.5" y2="360" gradientTransform="matrix(0.999986282944973, 0.005208437145524381, -0.005405560392960075, 1.0378390075468447, 1.9484748594817947, 2.936257942625137)">
                <stop offset="0" style="stop-color: #ff9933"/>
                <stop offset="1" style="stop-color: #cc6600"/>
              </linearGradient></defs>



<path d="M 365 0 H 731 V 360 H 365 V 0 Z" class="st1" style="fill: url('#gradient-3');" transform="matrix(1, 0, 0, 1, -179.6407012939453, 122.05682373046875)"/>










<path class="st6" d="M510.8,255.3c-2,3.4-4.2,6.6-5.8,10c-1.5,3.2-3.4,4.5-7.1,4.2c-2-0.2-3-0.8-4.1-2.4c-1.9-2.7-2.1-4.9-0.1-7.8&#10;&#9;c2.3-3.1,4-6.7,6.2-10.3c-3.6,0-7,0-10.3,0c-1.1,0-1.9-0.2-2.3-1.3c-0.2-0.6-0.6-1.2-1-1.6c-2-2.2-1.4-4.1,0-6.4&#10;&#9;c1.3-2.2,2.7-2.8,5.1-2.7c4.9,0.2,9.8,0.1,14.7,0.1c0.4,0,0.9-0.1,1.1-0.4c1-1.5,1.9-3.1,3-5c-3.1,0-5.8,0-8.6,0&#10;&#9;c-1.1,0-1.7-0.3-2.2-1.3c-0.5-1-1-2-1.7-2.9c-1.1-1.4-0.7-2.4,0-3.9c1.4-3.2,3.4-4.7,7-4c1.2,0.2,2.5,0,4.1,0&#10;&#9;c-3.5-6-6.9-11.8-10.5-17.9c-1,1.7-2,3.2-2.7,4.8c-0.9,2.1-2.3,2.5-4.5,2.7c-3,0.2-4.7-0.8-6.2-3.5c-1.1-2-1.3-3.5,0.1-5.3&#10;&#9;c1.3-1.8,2.2-3.8,3.5-5.9c-2.2,0-4,0-5.9,0c-0.4,0-0.8,0.5-1,0.9c-2.7,4.6-5.4,9.3-8,14c-0.5,1-1.1,1.4-2.2,1.2c-0.1,0-0.2,0-0.3,0&#10;&#9;c-6,0-6,0-8.5-5.4c-0.2-0.3-0.1-0.9,0.1-1.3c1.5-2.6,3-5.3,4.5-7.9c0.2-0.4,0.4-0.8,0.8-1.4c-0.7,0-1.1-0.1-1.6-0.1&#10;&#9;c-4.5,0-9,0-13.5,0c-1,0-1.6-0.3-2.1-1.2c-0.7-1.4-1.7-2.7-2.3-4.1c-0.2-0.5-0.1-1.2,0-1.8c0-0.3,0.3-0.6,0.5-0.9&#10;&#9;c0.9-1.4,1.5-3.4,2.8-4.2c1.3-0.7,3.3-0.2,5-0.2c3.7,0,7.3,0,11.3,0c-1.3-2.3-2.2-4.5-3.7-6.3c-2-2.6-2-4.8-0.1-7.5&#10;&#9;c1.2-1.6,2.2-2.3,4.2-2.4c3.2-0.2,5,0.8,6.4,3.7c1.8,3.8,4.2,7.4,6.3,11.1c0.6,1.2,1.4,1.6,2.6,1.5c1.4-0.1,2.9,0,4.6,0&#10;&#9;c-1.4-2.5-2.7-4.8-4.1-7c-0.6-1-0.9-1.9-0.1-3c1-1.4,1.5-3.4,2.8-4.2c1.3-0.8,3.3-0.2,5-0.3c1.5-0.1,2.3,0.3,3,1.7&#10;&#9;c0.9,1.9,2.1,3.6,3.2,5.7c3.5-6,6.9-11.8,10.5-17.8c-2,0-3.7-0.1-5.4,0c-2.2,0.2-3.4-0.5-4.7-2.4c-1.8-2.7-1.8-4.7,0-7.3&#10;&#9;c1.2-1.7,2.1-2.6,4.2-2.4c2.3,0.2,4.7,0,7.4,0c-1.1-1.9-2.1-3.6-3.2-5.2c-0.2-0.3-0.9-0.3-1.3-0.3c-5.4,0-10.9,0.1-16.3,0.2&#10;&#9;c-1,0-1.6-0.3-2.1-1.2c-0.7-1.3-1.5-2.6-2.3-3.9c-0.4-0.6-0.5-1.2,0-1.8c0.8-1.3,1.6-2.6,2.3-3.9c0.5-0.9,1.1-1.2,2.1-1.2&#10;&#9;c2.7,0,5.5,0,8.2,0c0.7,0,1.3-0.1,2.2-0.2c-2-3.5-3.7-7-6-10.1c-2.1-2.8-2.1-5,0-7.9c1.2-1.7,2.3-2.2,4.3-2.4&#10;&#9;c3.3-0.3,5.3,0.7,6.7,3.8c1.7,3.5,3.9,6.8,6,10.4c1.8-3.1,3.6-5.9,5.3-8.8c0.6-1,1.2-1.4,2.3-1.3c1.8,0.1,4-0.5,5.3,0.3&#10;&#9;c1.4,0.8,2,3,3.1,4.5c0.6,0.9,0.5,1.6,0,2.5c-2.8,4.5-5.5,9.1-8.3,13.7c-0.5,0.8-0.5,1.4,0,2.1c0.9,1.4,1.7,2.8,2.6,4.4&#10;&#9;c1.6-2.6,3-5,4.5-7.5c0.4-0.7,0.9-1.1,1.7-1c0.1,0,0.2,0,0.3,0c1.9,0,4.2-0.5,5.6,0.3c1.4,0.8,2.1,3.1,3,4.7c0.3,0.5,0.2,1.3,0,1.8&#10;&#9;c-1.1,2.1-2.4,4-3.7,6.2h20.9c-0.8-1.3-1.3-2.6-2.2-3.6c-2-2.4-1.9-4.5-0.1-7.1c1.2-1.8,2.4-2.3,4.5-2.5c3.3-0.3,5.2,0.8,6.4,3.8&#10;&#9;c0.7,1.6,1.8,3.1,2.8,4.8c1.1-1.8,2-3.4,2.9-5c0.2-0.4-0.1-1.1-0.3-1.5c-2.7-4.6-5.4-9.2-8.2-13.7c-0.5-0.9-0.6-1.5,0-2.4&#10;&#9;c0.9-1.3,1.5-2.7,2.4-4c0.3-0.4,0.9-0.7,1.4-0.8c0.8-0.1,1.7,0.1,2.5-0.1c2.9-0.6,4.4,0.7,5.6,3.2c1.1,2.3,2.6,4.4,4,6.8&#10;&#9;c1.9-3.3,3.8-6.3,5.6-9.4c0.8-1.3,1.5-2.6,2.3-3.9c0.3-0.4,0.9-0.8,1.4-0.8c1.8-0.1,3.6-0.1,5.4,0c0.5,0,1.1,0.4,1.3,0.8&#10;&#9;c1,1.5,1.9,3,2.7,4.5c0.2,0.5,0.2,1.3-0.1,1.8c-2.4,4.3-5,8.5-7.6,13c0.9,0.1,1.7,0.2,2.4,0.2c2.8,0,5.6,0.1,8.4,0&#10;&#9;c0.8,0,1.3,0.2,1.6,1c0,0.1,0.1,0.3,0.2,0.4c3.1,5.2,3.1,5.2-0.5,10c-0.3,0.4-1.1,0.6-1.6,0.6c-5.4,0-10.9-0.1-16.3-0.2&#10;&#9;c-1,0-1.5,0.2-2,1.1c-0.7,1.4-1.6,2.8-2.6,4.5c2.5,0,4.7,0.2,6.9-0.1c2.5-0.3,3.6,0.8,4.9,2.8c1.6,2.4,1.4,4.1,0,6.5&#10;&#9;c-1.4,2.4-3,3.1-5.5,2.8c-1.5-0.2-3,0-4.8,0c3.5,6,6.9,11.8,10.5,17.8c1.3-2.2,2.4-4.1,3.5-6.1c0.5-0.9,1.1-1.3,2.1-1.2&#10;&#9;c0.8,0.1,1.6,0.1,2.3,0c2.6-0.5,3.9,0.8,5.2,3c1.3,2.2,1.6,3.9,0,6c-1.2,1.6-2.1,3.6-3.3,5.6c2.1,0,4,0.1,5.8,0&#10;&#9;c0.4,0,0.9-0.5,1.1-0.9c2.7-4.6,5.4-9.3,8-14c0.5-0.9,1.1-1.3,2.2-1.2c1.5,0.1,3-0.1,4.6,0.1c0.5,0,1.2,0.5,1.6,0.9&#10;&#9;c0.9,1.3,1.6,2.7,2.4,4c0.5,0.8,0.5,1.3,0,2.1c-1.5,2.6-3,5.1-4.5,7.7c-0.2,0.4-0.4,0.8-0.7,1.3c1.9,0,3.7,0,5.4,0&#10;&#9;c3.3,0,6.6,0,9.8,0c0.9,0,1.4,0.3,1.8,1.1c0.6,1.1,1.2,2.3,1.9,3.3c1.1,1.4,1,2.5-0.1,3.9c-1,1.3-1.4,3.2-2.7,3.9&#10;&#9;c-1.2,0.7-3.1,0.2-4.8,0.2c-3.3,0-6.6,0-9.8,0c-0.5,0-1,0-1.8,0c1.5,2.7,2.8,5.2,4.4,7.5c1.3,1.9,1.1,3.3,0,5.4&#10;&#9;c-1.4,2.6-3,3.4-5.9,3.4c-2.5-0.1-3.8-0.7-4.9-2.9c-2.1-4.2-4.6-8.1-6.9-12.2c-0.5-0.9-1-1.1-2-1.1c-1.6,0.1-3.2,0-5.1,0&#10;&#9;c1.4,2.4,2.6,4.7,4,6.9c0.8,1.2,0.9,2.2,0,3.4c-1,1.4-1.5,3.4-2.8,4.1c-1.3,0.7-3.2,0.1-4.9,0.2c-1.4,0.1-2.2-0.4-2.9-1.6&#10;&#9;c-0.9-1.9-2.1-3.6-3.3-5.7c-3.5,6-6.9,11.8-10.5,17.8c2.5,0,4.8,0.1,7.1,0c1.1,0,1.8,0.3,2.3,1.3c0.6,1.3,1.5,2.4,2.1,3.7&#10;&#9;c0.3,0.5,0.3,1.4,0,1.9c-0.7,1.4-1.6,2.7-2.3,4.1c-0.4,0.8-1,1.1-1.9,1c-2.8-0.1-5.7,0-8.8,0c1.1,1.9,1.9,3.5,2.9,5&#10;&#9;c0.2,0.3,0.9,0.4,1.4,0.4c5.4,0,10.9,0,16.3-0.1c1,0,1.7,0.2,2.2,1.2c0.8,1.7,2.4,3.2,2.4,4.9c0,1.6-1.7,3.1-2.5,4.7&#10;&#9;c-0.5,1-1.2,1.3-2.2,1.3c-3.3,0-6.7,0-10.2,0c0.3,0.6,0.4,0.9,0.6,1.3c2.3,3.9,4.6,7.9,6.9,11.7c0.5,0.8,0.5,1.4,0,2.3&#10;&#9;c-0.9,1.3-1.6,2.8-2.5,4.1c-0.3,0.5-1,0.8-1.6,0.9c-1.7,0.1-3.3,0-5,0.1c-0.9,0-1.4-0.3-1.8-1.1c-2.5-4.3-5-8.5-7.6-13&#10;&#9;c-0.5,0.8-0.9,1.4-1.2,2c-1.4,2.4-2.8,4.8-4.3,7.1c-0.3,0.4-1,0.6-1.5,0.9c-0.1,0.1-0.3,0-0.4,0c-1.9,0-4.1,0.6-5.5-0.2&#10;&#9;c-1.5-0.9-2.2-3.1-3.1-4.8c-0.3-0.5-0.2-1.3,0-1.8c2.7-4.7,5.5-9.3,8.3-14c0.5-0.8,0.6-1.4,0-2.2c-0.9-1.3-1.6-2.7-2.6-4.3&#10;&#9;c-1.5,2.5-3,4.8-4.3,7.2c-0.5,1-1.1,1.4-2.3,1.4c-1.8-0.2-4,0.4-5.5-0.4c-1.4-0.8-1.9-3-2.9-4.4c-0.6-0.9-0.6-1.6,0-2.5&#10;&#9;c1.2-1.9,2.3-3.8,3.5-5.9h-20.8c1.2,2.1,2.4,4.1,3.6,6c0.5,0.8,0.6,1.5,0,2.3c-0.6,0.9-1.3,1.9-1.7,2.9c-0.7,1.8-1.9,1.9-3.6,2.1&#10;&#9;c-3.5,0.5-5.7-0.8-7-4c-0.6-1.6-1.7-2.9-2.7-4.6c-1,1.7-2,3.3-2.9,4.9c-0.2,0.4,0,1.1,0.3,1.6c2.7,4.6,5.5,9.2,8.3,13.8&#10;&#9;c0.5,0.8,0.6,1.4,0,2.2c-1,1.5-1.6,3.7-3,4.6c-1.4,0.8-3.6,0.2-5.5,0.3c-1.1,0.1-1.8-0.3-2.3-1.3&#10;&#9;C514.4,261.1,512.6,258.3,510.8,255.3" style="fill: rgb(255, 255, 255);" transform="matrix(1, 0, 0, 1, -179.6407012939453, 122.05682373046875)"/>








</svg>