<?xml version="1.0" encoding="iso-8859-1"?>
<!-- Generator: Adobe Illustrator 16.0.0, SVG Export Plug-In . SVG Version: 6.00 Build 0)  -->
<!DOCTYPE svg PUBLIC "-//W3C//DTD SVG 1.1//EN" "http://www.w3.org/Graphics/SVG/1.1/DTD/svg11.dtd">
<svg fill="#FFF" version="1.1" id="Capa_1" xmlns="http://www.w3.org/2000/svg" xmlns:xlink="http://www.w3.org/1999/xlink" x="0px" y="0px"
	 width="45.682px" height="45.682px" viewBox="0 0 45.682 45.682" style="enable-background:new 0 0 45.682 45.682;"
	 xml:space="preserve">
<g>
	<g>
		<path d="M37.362,26.977c-0.078-0.062-0.173-0.082-0.265-0.07c-0.089,0.012-0.175,0.06-0.235,0.137l-1.226,1.603
			c-0.004,0.008-0.005,0.016-0.011,0.022c-1.049-0.608-2.367-0.41-3.597,1.196c-0.832,1.087-1.014,2.877-1.031,4.09
			c-0.01,0.678,0.643,1.176,1.293,0.99c1.167-0.334,2.851-0.978,3.682-2.064c1.229-1.605,1.076-2.932,0.213-3.784
			c0.006-0.007,0.013-0.01,0.019-0.016l1.226-1.603C37.549,27.32,37.52,27.096,37.362,26.977z"/>
		<path d="M43.742,15.643c-1.346-0.708-2.309-0.426-2.831,0.321c-0.006-0.002-0.009-0.007-0.014-0.011l-1.343-0.705
			c-0.132-0.069-0.293-0.018-0.362,0.112c-0.035,0.067-0.039,0.14-0.019,0.207c0.021,0.063,0.065,0.121,0.132,0.157l1.342,0.704
			c0.006,0.002,0.014,0.002,0.019,0.005c-0.318,0.855-0.003,1.807,1.344,2.514c0.785,0.412,1.897,0.399,2.768,0.297
			c0.714-0.084,1.121-0.858,0.784-1.493C45.15,16.978,44.528,16.055,43.742,15.643z"/>
		<path d="M42.553,5.43c0.955-1.187,0.867-2.183,0.233-2.841c0.003-0.004,0.011-0.007,0.016-0.012l0.949-1.18
			c0.095-0.116,0.075-0.286-0.041-0.378c-0.058-0.047-0.128-0.066-0.195-0.059C43.446,0.967,43.381,1,43.334,1.059l-0.952,1.18
			c-0.005,0.005-0.006,0.012-0.01,0.017c-0.776-0.479-1.771-0.354-2.726,0.829c-0.557,0.69-0.76,1.784-0.829,2.657
			c-0.057,0.717,0.624,1.266,1.312,1.059C40.97,6.55,41.995,6.119,42.553,5.43z"/>
		<path d="M4.902,26c1.353-0.697,1.674-1.647,1.36-2.506c0.005-0.001,0.011-0.001,0.018-0.004l1.346-0.695
			c0.132-0.068,0.185-0.229,0.116-0.36c-0.035-0.067-0.092-0.113-0.156-0.134C7.52,22.28,7.447,22.284,7.38,22.32l-1.346,0.693
			c-0.006,0.003-0.01,0.009-0.015,0.013c-0.517-0.752-1.477-1.04-2.83-0.343c-0.788,0.406-1.416,1.325-1.831,2.098
			c-0.341,0.633,0.06,1.41,0.774,1.498C3.002,26.386,4.114,26.406,4.902,26z"/>
		<path d="M33.898,18.426c0.062-0.103,0.081-0.225,0.052-0.341c-0.027-0.117-0.102-0.217-0.205-0.279l-0.275-0.167
			c-0.213-0.13-0.491-0.062-0.62,0.151l-9.442,15.567l-12.71,3.108l5.961-7.578l0.211-0.268l0.073-0.204l5.205-14.405
			c0.024-0.002,0.049-0.008,0.073-0.014l1.937-0.562c0.007-0.004,0.014-0.009,0.021-0.012c0.48,1.113,1.662,1.737,3.604,1.171
			c1.313-0.381,2.522-1.714,3.256-2.68c0.41-0.54,0.182-1.328-0.454-1.564c-1.138-0.424-2.872-0.902-4.186-0.521
			c-1.944,0.563-2.607,1.72-2.418,2.918c-0.008,0.003-0.017,0-0.025,0.003l-1.513,0.438l1.859-5.146
			c0.064-0.18,0.189-0.33,0.354-0.427l6.067-3.549c0.162-0.094,0.279-0.249,0.327-0.431c0.047-0.182,0.021-0.374-0.074-0.536
			L30.265,1.88c-0.197-0.337-0.63-0.45-0.967-0.253l-6.211,3.632c-0.644,0.376-1.134,0.966-1.387,1.666l-4.48,12.411l-4.697-5.199
			l0.411-1.866c0.001-0.009-0.001-0.016,0.001-0.025c1.208,0.11,2.319-0.628,2.755-2.603c0.295-1.336-0.297-3.037-0.795-4.145
			c-0.277-0.618-1.079-0.795-1.59-0.351c-0.917,0.796-2.169,2.09-2.464,3.426c-0.435,1.977,0.263,3.112,1.406,3.521
			c-0.002,0.008-0.008,0.015-0.01,0.021l-0.301,1.371l-2.708-2.999L6.906,3.556c-0.038-0.114-0.12-0.208-0.227-0.261
			C6.571,3.241,6.447,3.233,6.334,3.271L6.029,3.373C5.793,3.452,5.665,3.708,5.744,3.944l2.361,7.054l8.645,9.639l-2.353,6.514
			L0.445,40.366C0.157,40.636-0.004,41.017,0,41.414c0.004,0.396,0.172,0.771,0.465,1.039l2.083,1.899
			c0.292,0.267,0.683,0.398,1.077,0.366c0.395-0.032,0.758-0.228,1.002-0.539l4.837-6.148l14.728-3.604L33.898,18.426z"/>
	</g>
</g>
<g>
</g>
<g>
</g>
<g>
</g>
<g>
</g>
<g>
</g>
<g>
</g>
<g>
</g>
<g>
</g>
<g>
</g>
<g>
</g>
<g>
</g>
<g>
</g>
<g>
</g>
<g>
</g>
<g>
</g>
</svg>
