<?xml version="1.0" encoding="iso-8859-1"?>
<!-- Generator: Adobe Illustrator 16.0.0, SVG Export Plug-In . SVG Version: 6.00 Build 0)  -->
<!DOCTYPE svg PUBLIC "-//W3C//DTD SVG 1.1//EN" "http://www.w3.org/Graphics/SVG/1.1/DTD/svg11.dtd">
<svg fill="#FFF" version="1.1" id="Capa_1" xmlns="http://www.w3.org/2000/svg" xmlns:xlink="http://www.w3.org/1999/xlink" x="0px" y="0px"
	 width="45.771px" height="45.771px" viewBox="0 0 45.771 45.771" style="enable-background:new 0 0 45.771 45.771;"
	 xml:space="preserve">
<g>
	<g>
		<g>
			<path d="M19.496,37.608v4.755c0,1.883,1.519,3.408,3.4,3.408c1.883,0,3.401-1.525,3.401-3.408v-4.755
				c-1.135,0.254-2.229,0.387-3.4,0.387C21.727,37.995,20.543,37.862,19.496,37.608z"/>
			<path d="M26.298,8.163V3.407C26.298,1.525,24.779,0,22.897,0c-1.882,0-3.4,1.525-3.4,3.407v4.757
				c1.047-0.254,2.23-0.389,3.401-0.389C24.07,7.775,25.164,7.91,26.298,8.163z"/>
			<path d="M35.703,30.883c-1.221,1.947-2.873,3.602-4.821,4.818l3.366,3.366c0.666,0.667,1.539,0.999,2.41,0.999
				s1.746-0.332,2.412-0.999c1.33-1.33,1.33-3.487,0-4.819L35.703,30.883z"/>
			<path d="M10.07,14.889c1.221-1.947,2.872-3.6,4.82-4.818l-3.367-3.369c-1.332-1.33-3.491-1.33-4.821,0
				c-1.331,1.332-1.331,3.49,0,4.82L10.07,14.889z"/>
			<path d="M10.07,30.881l-3.368,3.367c-1.331,1.332-1.331,3.489,0,4.819c0.667,0.667,1.538,0.999,2.412,0.999
				c0.871,0,1.743-0.332,2.409-0.999l3.367-3.366C12.942,34.481,11.29,32.83,10.07,30.881z"/>
			<path d="M35.703,14.889l3.367-3.367c1.33-1.33,1.33-3.488,0-4.82c-1.334-1.33-3.49-1.33-4.822,0l-3.366,3.367
				C32.83,11.29,34.482,12.941,35.703,14.889z"/>
			<path d="M42.363,19.477h-4.754c0.252,1.132,0.387,2.228,0.387,3.4s-0.135,2.354-0.387,3.4h4.754c1.883,0,3.408-1.521,3.408-3.4
				C45.773,20.994,44.246,19.477,42.363,19.477z"/>
			<path d="M7.776,22.878c0-1.173,0.135-2.269,0.388-3.4H3.407c-1.882,0-3.407,1.517-3.407,3.4c0,1.882,1.525,3.4,3.407,3.4h4.756
				C7.91,25.232,7.776,24.049,7.776,22.878z"/>
			<circle cx="22.886" cy="22.885" r="12.189"/>
		</g>
	</g>
</g>
<g>
</g>
<g>
</g>
<g>
</g>
<g>
</g>
<g>
</g>
<g>
</g>
<g>
</g>
<g>
</g>
<g>
</g>
<g>
</g>
<g>
</g>
<g>
</g>
<g>
</g>
<g>
</g>
<g>
</g>
</svg>
