<?xml version="1.0" encoding="iso-8859-1"?>
<!-- Generator: Adobe Illustrator 16.0.0, SVG Export Plug-In . SVG Version: 6.00 Build 0)  -->
<!DOCTYPE svg PUBLIC "-//W3C//DTD SVG 1.1//EN" "http://www.w3.org/Graphics/SVG/1.1/DTD/svg11.dtd">
<svg fill="#FFF" version="1.1" id="Capa_1" xmlns="http://www.w3.org/2000/svg" xmlns:xlink="http://www.w3.org/1999/xlink" x="0px" y="0px"
	 width="45.914px" height="45.914px" viewBox="0 0 45.914 45.914" style="enable-background:new 0 0 45.914 45.914;"
	 xml:space="preserve">
<g>
	<path d="M43.924,21.217h-1.57l-2.03-2.011c-0.24-0.241-0.567-0.367-0.909-0.367c-0.34,0-0.667,0.121-0.908,0.362l-2.029,2.016
		h-6.367c-0.165-0.578-0.398-1.127-0.69-1.639l4.509-4.504h2.869c0.342,0,0.668-0.121,0.91-0.362
		c0.24-0.241,0.376-0.561,0.376-0.902l-0.001-2.865l1.113-1.111c0.777-0.777,0.777-2.038,0-2.815
		c-0.778-0.777-2.039-0.795-2.817-0.017l-1.11,1.095h-2.871c-0.711,0-1.264,0.611-1.264,1.32v2.871l-4.502,4.506
		c-0.513-0.292-1.062-0.525-1.642-0.689V9.74l2.017-2.029c0.239-0.241,0.367-0.568,0.367-0.909c0-0.341-0.124-0.668-0.365-0.909
		l-2.019-2.03V2.291c0-1.1-0.909-1.992-2.01-1.992c-1.1,0-2.01,0.892-2.01,1.992v1.573l-2.026,2.029
		c-0.24,0.241-0.374,0.568-0.374,0.909c0,0.341,0.133,0.668,0.373,0.909l2.027,2.029v6.359c-0.597,0.168-1.164,0.407-1.69,0.71
		l-4.53-4.522v-2.87c0-0.709-0.521-1.32-1.23-1.32h-2.871L9.537,7.002C8.758,6.223,7.497,6.241,6.72,7.019
		c-0.779,0.778-0.779,2.039,0,2.815l1.112,1.111L7.831,13.81c0,0.341,0.136,0.661,0.377,0.902c0.241,0.241,0.568,0.362,0.909,0.362
		h2.869l4.523,4.519c-0.287,0.507-0.519,1.052-0.681,1.624H9.439l-2.03-2.016c-0.241-0.241-0.568-0.362-0.908-0.362
		c-0.341,0-0.668,0.126-0.909,0.367l-2.03,2.011h-1.57c-1.1,0-1.992,0.91-1.992,2.01c0,1.101,0.893,2.009,1.992,2.009h1.57
		l2.03,2.031c0.241,0.24,0.568,0.377,0.909,0.377c0.34,0,0.667-0.137,0.908-0.377l2.03-2.029h6.38
		c0.161,0.576,0.39,1.123,0.677,1.635l-4.507,4.508h-2.87c-0.343,0-0.7,0.139-0.94,0.38c-0.242,0.241-0.407,0.571-0.407,0.913v2.87
		l-0.673,0.704c-0.778,0.777-0.748,2.039,0.03,2.816c0.39,0.39,0.898,0.584,1.408,0.584c0.509,0,1.02-0.195,1.408-0.584l0.706-0.707
		h2.867c0.341,0,0.643-0.134,0.881-0.375c0.242-0.24,0.351-0.567,0.351-0.908v-2.87l4.529-4.521c0.526,0.304,1.094,0.542,1.69,0.709
		v6.36l-2.025,2.029c-0.241,0.24-0.375,0.567-0.375,0.908c0,0.342,0.133,0.668,0.374,0.908l2.026,2.029v0.996
		c0,1.1,0.91,1.992,2.01,1.992c1.101,0,2.01-0.893,2.01-1.992v-0.996l2.017-2.029c0.239-0.24,0.368-0.566,0.368-0.908
		c0-0.341-0.125-0.668-0.366-0.908l-2.019-2.028v-6.366c0.579-0.164,1.129-0.396,1.642-0.688l4.502,4.506v2.869
		c0,0.342,0.125,0.668,0.365,0.91c0.24,0.24,0.559,0.375,0.898,0.375h2.867l0.705,0.705c0.39,0.39,0.899,0.584,1.408,0.584
		c0.51,0,1.02-0.193,1.408-0.582c0.777-0.778,0.793-2.041,0.016-2.817l-0.69-0.704v-2.87c0-0.342-0.147-0.672-0.39-0.913
		c-0.242-0.242-0.582-0.38-0.926-0.38h-2.869l-4.494-4.491c0.291-0.516,0.523-1.07,0.687-1.652h6.356l2.031,2.029
		c0.24,0.241,0.567,0.377,0.907,0.377c0.341,0,0.669-0.137,0.909-0.378l2.029-2.03h1.57c1.1,0,1.992-0.909,1.992-2.009
		C45.915,22.127,45.023,21.217,43.924,21.217z M19.532,23.245c0-1.897,1.539-3.436,3.437-3.436s3.437,1.539,3.437,3.436
		c0,1.899-1.539,3.438-3.437,3.438S19.532,25.145,19.532,23.245z"/>
</g>
<g>
</g>
<g>
</g>
<g>
</g>
<g>
</g>
<g>
</g>
<g>
</g>
<g>
</g>
<g>
</g>
<g>
</g>
<g>
</g>
<g>
</g>
<g>
</g>
<g>
</g>
<g>
</g>
<g>
</g>
</svg>
